<svg id="svg" xmlns="http://www.w3.org/2000/svg" xmlns:xlink="http://www.w3.org/1999/xlink" width="400" height="400" viewBox="0, 0, 400,400"><g id="svgg"><path id="path0" d="M111.500 111.750 L 22.251 201.000 111.625 290.375 L 201.000 379.750 290.375 290.375 L 379.749 201.000 290.500 111.750 C 241.413 62.663,201.138 22.500,201.000 22.500 C 200.862 22.500,160.587 62.663,111.500 111.750 M288.750 289.000 L 200.751 377.000 112.751 289.000 L 24.751 201.000 112.750 113.000 L 200.749 25.000 288.749 113.000 L 376.749 201.000 288.750 289.000 M241.813 78.854 C 241.618 79.048,268.862 106.611,302.354 140.104 L 363.248 201.000 322.874 241.376 C 286.785 277.467,281.468 283.000,282.876 283.000 C 283.610 283.000,364.500 201.735,364.500 200.998 C 364.500 200.317,243.136 78.500,242.458 78.500 C 242.298 78.500,242.007 78.659,241.813 78.854 M78.112 159.638 C 55.775 181.976,37.500 200.590,37.500 201.002 C 37.500 202.184,159.269 323.702,160.000 323.250 C 160.412 322.996,140.323 302.574,99.685 261.935 L 38.752 201.000 79.238 160.512 C 106.228 133.520,119.557 119.857,119.224 119.524 C 118.891 119.191,105.186 132.562,78.112 159.638 M275.309 126.405 C 275.171 126.628,291.891 143.642,312.464 164.214 C 337.417 189.165,349.996 201.411,350.250 201.000 C 350.601 200.432,276.820 126.000,275.906 126.000 C 275.715 126.000,275.446 126.182,275.309 126.405 M136.000 179.250 L 136.000 183.000 138.250 183.000 L 140.500 183.000 140.500 179.250 L 140.500 175.500 138.250 175.500 L 136.000 175.500 136.000 179.250 M159.833 177.333 C 158.431 178.736,159.952 180.000,163.041 180.000 L 165.000 180.000 165.000 198.974 L 165.000 217.948 162.375 218.099 C 159.949 218.239,159.750 218.345,159.750 219.500 C 159.750 220.721,159.847 220.753,163.875 220.895 L 168.000 221.040 168.000 218.220 L 168.000 215.400 170.744 217.908 C 181.059 227.335,196.249 220.094,196.249 205.750 C 196.249 191.228,181.178 184.368,170.375 193.973 L 168.000 196.085 168.000 186.542 L 168.000 177.000 164.083 177.000 C 161.929 177.000,160.017 177.150,159.833 177.333 M262.367 190.015 C 247.423 193.768,245.961 215.566,260.291 220.984 C 266.934 223.496,279.909 220.340,282.449 215.596 C 283.463 213.701,281.878 212.510,280.164 213.880 C 265.938 225.245,247.598 215.530,254.435 200.250 C 258.778 190.545,276.032 189.705,277.954 199.105 C 278.225 200.428,278.532 200.750,279.520 200.750 C 280.745 200.750,280.750 200.728,280.750 195.750 C 280.750 190.507,279.624 188.758,278.256 191.877 C 277.984 192.497,277.646 192.936,277.506 192.853 C 272.662 189.994,266.813 188.898,262.367 190.015 M121.576 190.943 C 121.205 191.178,120.983 191.793,121.082 192.310 C 121.251 193.185,121.923 193.259,130.881 193.386 L 140.500 193.522 140.500 209.155 C 140.500 230.854,140.379 231.076,128.340 231.500 L 121.250 231.750 121.250 233.000 L 121.250 234.250 128.042 234.389 C 136.370 234.558,139.101 233.538,141.742 229.268 L 143.250 226.831 143.404 208.665 L 143.557 190.500 132.904 190.508 C 127.044 190.512,121.947 190.708,121.576 190.943 M206.500 191.250 C 205.790 192.105,206.588 193.500,207.787 193.500 C 208.152 193.500,211.145 196.097,214.438 199.272 L 220.424 205.043 213.916 211.397 C 209.876 215.342,206.907 217.846,206.086 218.004 C 204.622 218.285,203.994 219.872,205.076 220.557 C 205.842 221.043,216.002 221.160,217.209 220.697 C 219.776 219.712,217.667 218.012,213.834 217.975 L 211.250 217.951 216.750 212.730 C 219.775 209.859,222.436 207.508,222.664 207.505 C 222.892 207.502,225.479 209.857,228.414 212.738 L 233.750 217.976 230.936 217.988 C 227.750 218.002,226.386 218.908,227.512 220.265 C 228.031 220.889,229.256 221.004,234.199 220.890 L 240.250 220.750 240.250 219.500 C 240.250 218.553,239.952 218.208,239.022 218.077 C 238.250 217.968,235.377 215.505,231.272 211.433 L 224.750 204.962 230.750 199.255 C 234.050 196.116,237.198 193.481,237.745 193.399 C 238.924 193.222,239.386 191.552,238.424 190.943 C 237.191 190.161,228.198 190.409,227.505 191.244 C 226.365 192.618,227.284 193.500,229.856 193.500 L 232.244 193.500 227.375 198.368 L 222.507 203.237 217.737 198.493 L 212.968 193.750 215.355 193.500 C 217.831 193.241,218.922 191.892,217.424 190.943 C 216.184 190.156,207.198 190.409,206.500 191.250 M186.090 193.697 C 198.398 199.609,194.514 219.019,181.027 218.995 C 166.574 218.970,163.542 198.163,177.250 193.082 C 179.317 192.315,183.874 192.633,186.090 193.697 M51.750 200.999 C 51.220 201.857,125.531 276.169,126.224 275.476 C 126.558 275.142,114.313 262.564,89.428 237.679 C 64.527 212.778,52.005 200.588,51.750 200.999 " stroke="none" fill="#000000" fill-rule="evenodd"></path></g></svg>