<svg id="svg" version="1.1" xmlns="http://www.w3.org/2000/svg" xmlns:xlink="http://www.w3.org/1999/xlink" width="400" height="400" viewBox="0, 0, 400,400"><g id="svgg"><path id="path0" d="M200.800 21.702 C 200.800 21.758,241.030 62.033,290.200 111.201 C 339.370 160.369,379.600 200.779,379.600 201.000 C 379.600 201.221,339.377 241.624,290.216 290.783 C 241.054 339.943,200.913 380.246,201.012 380.345 C 201.235 380.568,380.400 201.445,380.400 201.000 C 380.400 200.621,201.438 21.600,201.060 21.600 C 200.917 21.600,200.800 21.646,200.800 21.702 M113.020 113.020 C 64.719 161.321,25.200 200.912,25.200 201.000 C 25.200 201.223,200.797 376.800,201.020 376.800 C 201.520 376.800,195.046 370.286,113.480 288.720 L 25.760 201.000 113.249 113.512 C 196.419 30.343,201.532 25.200,201.043 25.200 C 200.931 25.200,161.321 64.719,113.020 113.020 M243.554 78.945 C 243.803 79.245,270.996 106.478,303.982 139.462 C 339.023 174.501,364.141 199.917,364.399 200.598 C 364.841 201.760,364.779 201.825,323.917 242.681 C 301.408 265.186,283.137 283.600,283.315 283.600 C 284.294 283.600,365.200 201.988,365.200 201.001 C 365.200 200.147,354.139 188.897,304.419 139.178 C 252.035 86.796,241.040 75.915,243.554 78.945 M241.200 79.781 C 241.200 79.881,268.434 107.196,301.720 140.481 L 362.240 201.000 321.897 241.343 C 299.708 263.532,281.660 281.793,281.790 281.924 C 282.033 282.166,362.800 201.514,362.800 201.029 C 362.800 200.709,241.740 79.600,241.421 79.600 C 241.299 79.600,241.200 79.682,241.200 79.781 M118.900 118.832 C 120.383 119.696,118.471 121.728,79.301 160.899 C 57.136 183.065,39.128 201.200,39.282 201.200 C 39.749 201.200,120.400 120.392,120.400 119.924 C 120.400 119.426,119.199 118.426,118.600 118.425 C 118.380 118.425,118.515 118.608,118.900 118.832 M135.467 175.067 C 135.029 175.505,135.155 183.200,135.600 183.200 C 135.840 183.200,136.000 181.584,136.000 179.152 L 136.000 175.104 138.400 175.277 C 139.720 175.373,140.800 175.305,140.800 175.126 C 140.800 174.737,135.851 174.683,135.467 175.067 M164.100 176.691 C 166.778 176.786,168.016 176.981,168.051 177.314 C 168.079 177.582,168.228 181.760,168.382 186.600 L 168.662 195.400 168.631 186.000 L 168.600 176.600 164.400 176.576 L 160.200 176.552 164.100 176.691 M175.000 190.267 C 174.297 190.830,174.289 190.877,174.933 190.654 C 175.336 190.514,175.831 190.400,176.033 190.400 C 176.235 190.400,176.400 190.220,176.400 190.000 C 176.400 189.433,175.927 189.524,175.000 190.267 M281.348 195.600 C 281.348 197.910,281.414 198.855,281.495 197.700 C 281.576 196.545,281.576 194.655,281.495 193.500 C 281.414 192.345,281.348 193.290,281.348 195.600 M179.400 192.800 C 178.696 193.102,178.735 193.147,179.724 193.172 C 180.376 193.188,180.744 193.032,180.600 192.800 C 180.464 192.580,180.318 192.413,180.276 192.428 C 180.234 192.444,179.840 192.611,179.400 192.800 M181.377 192.838 C 181.254 193.037,181.613 193.200,182.176 193.200 C 183.402 193.200,183.501 192.972,182.400 192.684 C 181.961 192.569,181.500 192.638,181.377 192.838 M190.588 192.781 C 191.069 193.558,193.205 194.879,192.964 194.249 C 192.837 193.919,192.304 193.367,191.780 193.024 C 190.698 192.315,190.243 192.222,190.588 192.781 M264.800 192.800 C 263.860 193.101,263.879 193.123,265.124 193.160 C 265.913 193.184,266.347 193.038,266.200 192.800 C 266.064 192.580,265.918 192.418,265.876 192.440 C 265.834 192.462,265.350 192.624,264.800 192.800 M267.126 192.854 C 266.791 193.067,267.144 193.190,268.100 193.194 C 268.925 193.197,269.600 193.131,269.600 193.047 C 269.600 192.700,267.613 192.546,267.126 192.854 M254.249 194.017 C 253.617 194.686,253.191 195.324,253.301 195.435 C 253.491 195.624,256.000 193.332,256.000 192.969 C 256.000 192.495,255.276 192.928,254.249 194.017 M139.600 208.976 C 139.600 218.796,139.745 224.442,140.000 224.600 C 140.264 224.763,140.400 219.537,140.400 209.224 C 140.400 199.075,140.260 193.600,140.000 193.600 C 139.740 193.600,139.600 198.992,139.600 208.976 M213.400 194.000 C 213.536 194.220,214.357 194.400,215.224 194.400 C 216.091 194.400,216.800 194.220,216.800 194.000 C 216.800 193.780,215.979 193.600,214.976 193.600 C 213.863 193.600,213.249 193.756,213.400 194.000 M228.800 194.000 C 228.800 194.510,230.810 194.510,231.600 194.000 C 232.039 193.716,231.745 193.611,230.500 193.606 C 229.565 193.603,228.800 193.780,228.800 194.000 M260.400 194.024 C 260.400 194.257,260.220 194.336,260.000 194.200 C 259.780 194.064,259.600 194.143,259.600 194.376 C 259.600 194.867,259.707 194.887,260.567 194.557 C 261.265 194.289,261.433 193.600,260.800 193.600 C 260.580 193.600,260.400 193.791,260.400 194.024 M186.400 194.295 C 186.400 194.684,188.014 195.719,188.251 195.482 C 188.347 195.386,187.969 195.010,187.412 194.645 C 186.856 194.280,186.400 194.122,186.400 194.295 M275.067 195.831 C 275.192 196.156,275.647 196.611,276.077 196.841 C 276.774 197.214,276.814 197.174,276.441 196.477 C 275.928 195.517,274.731 194.955,275.067 195.831 M214.052 199.763 C 215.454 201.173,216.680 202.248,216.777 202.153 C 217.012 201.922,212.328 197.200,211.865 197.200 C 211.667 197.200,212.651 198.354,214.052 199.763 M217.600 197.847 C 217.600 198.218,221.285 201.911,222.251 202.508 C 222.749 202.816,226.272 199.739,225.876 199.342 C 225.734 199.201,224.922 199.802,224.071 200.679 L 222.523 202.274 221.319 201.037 C 218.991 198.647,217.600 197.454,217.600 197.847 M51.067 200.667 C 50.920 200.813,50.800 201.184,50.800 201.490 C 50.800 201.796,67.540 218.784,88.000 239.241 C 108.460 259.698,125.200 276.292,125.200 276.117 C 125.200 275.942,108.632 259.239,88.382 238.999 C 57.946 208.579,51.591 202.044,51.726 201.300 C 51.886 200.417,51.595 200.138,51.067 200.667 M89.547 237.667 C 120.407 268.530,126.771 275.078,126.579 275.767 C 126.394 276.434,126.431 276.480,126.768 276.000 C 126.999 275.670,127.191 275.183,127.194 274.919 C 127.201 274.322,53.325 200.400,52.721 200.400 C 52.480 200.400,69.052 217.170,89.547 237.667 M227.617 202.421 C 226.457 203.533,225.609 204.542,225.730 204.664 C 225.852 204.785,226.937 203.876,228.141 202.643 C 230.868 199.850,230.473 199.683,227.617 202.421 M249.600 203.376 C 249.600 203.913,249.780 204.464,250.000 204.600 C 250.233 204.744,250.400 204.337,250.400 203.624 C 250.400 202.951,250.220 202.400,250.000 202.400 C 249.780 202.400,249.600 202.839,249.600 203.376 M196.700 207.010 C 196.594 207.565,196.663 208.115,196.854 208.233 C 197.044 208.351,197.200 207.897,197.200 207.224 C 197.200 205.739,196.963 205.637,196.700 207.010 M249.600 208.600 C 249.600 209.150,249.780 209.600,250.000 209.600 C 250.220 209.600,250.400 209.150,250.400 208.600 C 250.400 208.050,250.220 207.600,250.000 207.600 C 249.780 207.600,249.600 208.050,249.600 208.600 M229.600 209.551 C 229.600 209.821,233.990 214.012,235.517 215.200 C 236.266 215.783,234.302 213.534,232.300 211.517 C 229.986 209.186,229.600 208.905,229.600 209.551 M169.206 210.671 C 169.218 211.284,169.955 212.178,170.226 211.907 C 170.374 211.759,170.204 211.347,169.848 210.990 C 169.491 210.634,169.203 210.491,169.206 210.671 M227.334 212.586 C 228.603 213.855,229.730 214.804,229.838 214.695 C 230.084 214.450,226.887 211.279,225.814 210.702 C 225.381 210.469,226.065 211.317,227.334 212.586 M254.000 211.029 C 254.000 211.154,254.270 211.527,254.600 211.857 C 255.251 212.508,255.333 212.411,254.957 211.433 C 254.729 210.838,254.000 210.530,254.000 211.029 M210.965 213.313 C 208.094 216.258,207.791 217.039,210.544 214.400 C 211.806 213.190,213.010 212.140,213.220 212.067 C 213.668 211.909,213.736 211.194,213.300 211.213 C 213.135 211.219,212.084 212.164,210.965 213.313 M282.075 213.225 C 282.171 213.514,282.486 213.829,282.775 213.925 C 283.075 214.025,283.225 213.875,283.125 213.575 C 283.029 213.286,282.714 212.971,282.425 212.875 C 282.125 212.775,281.975 212.925,282.075 213.225 M171.200 213.922 C 171.200 214.103,171.740 214.768,172.400 215.400 C 173.060 216.032,173.600 216.366,173.600 216.141 C 173.600 215.916,173.060 215.251,172.400 214.663 C 171.740 214.075,171.200 213.742,171.200 213.922 M213.800 215.640 C 212.700 216.709,211.983 217.587,212.207 217.591 C 212.604 217.600,216.400 214.155,216.400 213.786 C 216.400 213.311,215.643 213.851,213.800 215.640 M189.905 214.429 C 189.523 214.652,189.017 215.195,188.781 215.635 C 188.215 216.694,189.630 215.884,190.344 214.741 C 190.873 213.893,190.851 213.878,189.905 214.429 M168.220 216.314 C 167.824 216.710,167.989 221.200,168.400 221.200 C 168.620 221.200,168.800 220.275,168.800 219.145 L 168.800 217.091 169.855 218.145 C 170.768 219.059,171.600 219.497,171.600 219.066 C 171.600 218.716,168.412 216.121,168.220 216.314 M191.822 217.626 C 190.953 218.492,190.437 219.200,190.674 219.200 C 191.169 219.200,193.600 216.811,193.600 216.324 C 193.600 215.862,193.567 215.886,191.822 217.626 M175.600 217.557 C 175.600 218.001,176.831 218.503,177.146 218.188 C 177.273 218.061,177.112 217.789,176.788 217.584 C 176.040 217.111,175.600 217.101,175.600 217.557 M185.212 217.584 C 184.888 217.789,184.727 218.061,184.854 218.188 C 185.169 218.503,186.400 218.001,186.400 217.557 C 186.400 217.101,185.960 217.111,185.212 217.584 M254.380 218.071 C 254.826 218.550,255.315 218.818,255.467 218.667 C 255.618 218.515,255.395 218.129,254.971 217.809 C 253.810 216.930,253.462 217.085,254.380 218.071 M159.043 218.233 C 158.667 219.211,158.749 219.341,159.400 218.800 C 160.065 218.248,160.196 217.600,159.643 217.600 C 159.446 217.600,159.176 217.885,159.043 218.233 M271.200 218.000 C 271.200 218.220,271.470 218.400,271.800 218.400 C 272.130 218.400,272.400 218.220,272.400 218.000 C 272.400 217.780,272.130 217.600,271.800 217.600 C 271.470 217.600,271.200 217.780,271.200 218.000 M280.000 218.000 C 279.683 218.196,279.556 218.489,279.718 218.652 C 279.881 218.814,280.223 218.737,280.480 218.480 C 281.084 217.876,280.747 217.538,280.000 218.000 M240.800 219.453 C 240.800 219.886,240.584 220.456,240.320 220.720 C 239.955 221.085,239.953 221.200,240.312 221.200 C 240.834 221.200,241.442 219.309,241.048 218.915 C 240.912 218.778,240.800 219.021,240.800 219.453 M276.412 219.984 C 276.088 220.189,275.927 220.461,276.054 220.588 C 276.369 220.903,277.600 220.401,277.600 219.957 C 277.600 219.501,277.160 219.511,276.412 219.984 M158.892 220.475 C 158.979 220.736,159.264 221.021,159.525 221.108 C 159.818 221.206,159.907 221.023,159.757 220.633 C 159.478 219.906,158.652 219.755,158.892 220.475 M270.800 222.000 C 270.800 222.220,271.160 222.400,271.600 222.400 C 272.040 222.400,272.400 222.220,272.400 222.000 C 272.400 221.780,272.040 221.600,271.600 221.600 C 271.160 221.600,270.800 221.780,270.800 222.000 M178.800 222.400 C 178.800 222.620,179.700 222.800,180.800 222.800 C 181.900 222.800,182.800 222.620,182.800 222.400 C 182.800 222.180,181.900 222.000,180.800 222.000 C 179.700 222.000,178.800 222.180,178.800 222.400 M264.800 222.400 C 264.800 222.620,265.621 222.800,266.624 222.800 C 267.737 222.800,268.351 222.644,268.200 222.400 C 268.064 222.180,267.243 222.000,266.376 222.000 C 265.509 222.000,264.800 222.180,264.800 222.400 M137.311 228.900 C 136.352 230.140,136.364 230.515,137.335 229.630 C 137.921 229.097,138.400 228.602,138.400 228.530 C 138.400 228.200,137.658 228.452,137.311 228.900 M120.667 231.467 C 120.520 231.613,120.400 231.986,120.400 232.295 C 120.400 232.761,120.503 232.754,121.000 232.257 C 121.330 231.927,121.600 231.554,121.600 231.429 C 121.600 231.115,120.993 231.140,120.667 231.467 M138.224 233.013 C 137.796 233.336,137.627 233.600,137.847 233.600 C 138.067 233.600,138.596 233.336,139.024 233.013 C 139.451 232.690,139.620 232.425,139.400 232.425 C 139.180 232.425,138.651 232.690,138.224 233.013 M122.600 234.800 C 122.440 235.059,124.204 235.200,127.600 235.200 C 130.996 235.200,132.760 235.059,132.600 234.800 C 132.458 234.570,130.337 234.400,127.600 234.400 C 124.863 234.400,122.742 234.570,122.600 234.800 M159.867 323.467 C 159.484 323.849,159.538 324.400,159.957 324.400 C 160.154 324.400,160.418 324.130,160.545 323.800 C 160.779 323.190,160.353 322.981,159.867 323.467 " stroke="none" fill="#b2b2b2" fill-rule="evenodd"></path><path id="path1" d="M111.100 111.177 C 61.875 160.404,21.600 200.824,21.600 201.000 C 21.600 201.176,61.920 241.640,111.200 290.920 C 160.480 340.200,200.800 380.393,200.800 380.239 C 200.800 380.084,160.660 339.819,111.600 290.760 C 62.540 241.701,22.400 201.327,22.400 201.041 C 22.400 200.754,62.569 160.351,111.663 111.257 C 160.758 62.162,200.853 21.922,200.763 21.833 C 200.674 21.745,160.325 61.950,111.100 111.177 M77.403 159.303 C 42.945 193.808,36.998 199.929,36.947 200.943 C 36.885 202.167,158.859 324.875,159.500 324.233 C 159.638 324.095,159.403 323.736,158.976 323.435 C 156.199 321.479,37.235 201.813,37.313 201.054 C 37.368 200.517,52.425 185.153,77.900 159.641 C 100.175 137.333,118.400 119.018,118.400 118.941 C 118.400 118.339,113.180 123.478,77.403 159.303 M274.800 127.341 C 274.800 127.643,348.940 201.600,349.242 201.600 C 349.419 201.600,332.822 184.860,312.361 164.400 C 278.420 130.460,274.800 126.888,274.800 127.341 M136.900 175.487 C 137.505 175.578,138.495 175.578,139.100 175.487 C 139.705 175.395,139.210 175.320,138.000 175.320 C 136.790 175.320,136.295 175.395,136.900 175.487 M168.000 188.000 C 168.000 192.473,168.105 196.029,168.233 195.901 C 168.504 195.629,168.458 180.324,168.184 180.051 C 168.083 179.950,168.000 183.527,168.000 188.000 M210.348 195.878 C 210.831 196.806,211.538 197.395,211.825 197.108 C 211.920 197.014,211.523 196.501,210.944 195.968 C 209.940 195.045,209.913 195.041,210.348 195.878 M172.200 196.400 C 171.802 196.840,171.678 197.200,171.924 197.200 C 172.170 197.200,172.565 196.840,172.800 196.400 C 173.035 195.960,173.160 195.600,173.076 195.600 C 172.992 195.600,172.598 195.960,172.200 196.400 M168.134 205.427 C 168.002 205.772,168.075 206.235,168.297 206.457 C 168.568 206.728,168.700 206.522,168.700 205.830 C 168.700 204.660,168.487 204.508,168.134 205.427 M218.790 206.018 C 218.386 206.774,218.415 206.797,219.176 206.322 C 220.042 205.781,220.269 205.200,219.614 205.200 C 219.402 205.200,219.031 205.568,218.790 206.018 M224.369 209.548 C 225.122 210.234,225.829 210.704,225.940 210.593 C 226.157 210.377,225.100 209.463,223.800 208.743 C 223.360 208.500,223.616 208.862,224.369 209.548 M217.263 212.400 C 216.572 213.060,216.152 213.600,216.329 213.600 C 216.506 213.600,217.168 213.060,217.800 212.400 C 218.432 211.740,218.853 211.200,218.734 211.200 C 218.616 211.200,217.954 211.740,217.263 212.400 M235.600 215.554 C 235.600 215.749,236.073 216.218,236.651 216.596 L 237.701 217.285 236.951 216.255 C 236.191 215.213,235.600 214.906,235.600 215.554 M277.067 215.467 C 276.581 215.953,276.790 216.379,277.400 216.145 C 277.730 216.018,278.000 215.754,278.000 215.557 C 278.000 215.138,277.449 215.084,277.067 215.467 " stroke="none" fill="#7c7c7c" fill-rule="evenodd"></path><path id="path2" d="M111.700 111.700 C 62.805 160.596,22.800 200.781,22.800 201.001 C 22.800 201.524,200.478 379.200,201.001 379.200 C 201.524 379.200,379.200 201.522,379.200 200.999 C 379.200 200.476,201.522 22.800,200.999 22.800 C 200.779 22.800,160.594 62.805,111.700 111.700 M289.180 112.820 C 337.591 161.231,377.200 200.912,377.200 201.000 C 377.200 201.261,201.182 377.200,200.920 377.200 C 200.554 377.200,24.800 201.366,24.800 201.000 C 24.800 200.617,200.478 24.832,200.880 24.813 C 201.034 24.806,240.769 64.409,289.180 112.820 M242.262 78.982 C 242.158 79.253,269.327 106.727,302.637 140.037 C 335.947 173.346,363.200 200.779,363.200 200.999 C 363.200 201.219,345.086 219.513,322.947 241.653 C 297.578 267.023,282.802 282.080,282.985 282.376 C 283.344 282.956,364.400 202.017,364.400 201.079 C 364.400 200.214,242.502 78.357,242.262 78.982 M78.090 159.710 C 51.372 186.429,37.600 200.473,37.600 201.001 C 37.600 202.074,159.375 323.887,159.785 323.225 C 159.967 322.929,137.544 300.224,99.218 261.897 L 38.362 201.040 78.871 160.529 C 105.876 133.523,119.246 119.886,118.979 119.619 C 118.713 119.353,105.083 132.716,78.090 159.710 M275.600 126.823 C 275.600 127.372,349.031 200.800,349.581 200.800 C 350.542 200.800,348.425 198.623,313.099 163.299 C 277.727 127.928,275.600 125.860,275.600 126.823 M136.000 179.400 L 136.000 183.200 138.000 183.200 L 140.000 183.200 140.000 179.400 L 140.000 175.600 138.000 175.600 L 136.000 175.600 136.000 179.400 M159.745 177.800 C 159.242 179.111,159.906 179.600,162.187 179.600 C 163.404 179.600,164.400 179.774,164.400 179.987 C 164.400 180.201,164.670 180.271,165.000 180.145 C 165.528 179.942,165.600 182.187,165.600 198.890 L 165.600 217.866 163.457 217.688 C 160.414 217.436,158.601 219.058,160.171 220.629 C 160.583 221.040,161.760 221.200,164.371 221.200 L 168.000 221.200 168.000 218.168 L 168.000 215.136 170.700 217.581 C 172.185 218.926,173.805 220.129,174.300 220.256 C 174.795 220.383,175.200 220.642,175.200 220.831 C 175.200 221.020,175.470 221.071,175.800 220.945 C 176.130 220.818,176.400 220.914,176.400 221.157 C 176.400 221.401,176.850 221.600,177.400 221.600 C 177.950 221.600,178.400 221.735,178.401 221.900 C 178.402 222.065,179.572 222.200,181.001 222.200 C 182.431 222.200,183.600 222.065,183.600 221.900 C 183.600 221.735,183.926 221.600,184.325 221.600 C 186.651 221.600,194.400 215.625,194.400 213.832 C 194.400 213.516,194.676 212.981,195.014 212.643 C 195.352 212.305,195.626 211.933,195.624 211.816 C 195.609 211.117,196.141 209.200,196.350 209.200 C 196.488 209.200,196.600 207.670,196.600 205.800 C 196.600 203.930,196.465 202.400,196.300 202.400 C 196.135 202.400,196.000 202.138,196.000 201.818 C 196.000 197.298,188.029 190.000,183.092 190.000 C 182.491 190.000,182.000 189.820,182.000 189.600 C 182.000 189.380,181.359 189.200,180.576 189.200 C 179.793 189.200,179.252 189.360,179.373 189.557 C 179.494 189.753,179.010 190.007,178.297 190.121 C 175.264 190.606,173.208 191.722,170.386 194.414 L 168.200 196.499 168.093 186.849 L 167.986 177.200 163.980 177.200 C 160.789 177.200,159.928 177.322,159.745 177.800 M265.600 189.600 C 265.600 189.820,265.019 190.000,264.310 190.000 C 262.179 190.000,257.839 191.943,255.939 193.748 C 253.676 195.897,252.406 197.473,252.699 197.766 C 252.828 197.895,252.678 198.000,252.367 198.000 C 252.037 198.000,251.775 198.440,251.739 199.053 C 251.706 199.631,251.526 200.216,251.339 200.352 C 250.942 200.642,250.869 201.341,250.715 206.300 C 250.652 208.335,250.756 210.000,250.947 210.000 C 251.137 210.000,251.201 210.351,251.089 210.781 C 250.977 211.210,251.041 211.615,251.231 211.681 C 251.421 211.746,251.627 212.240,251.688 212.778 C 251.900 214.631,256.585 219.310,259.184 220.265 C 260.183 220.632,261.171 221.082,261.380 221.266 C 261.589 221.450,262.084 221.600,262.480 221.600 C 262.876 221.600,263.200 221.746,263.200 221.925 C 263.200 222.331,269.319 222.309,269.622 221.902 C 269.745 221.738,270.375 221.570,271.022 221.529 C 271.670 221.488,272.380 221.331,272.600 221.180 C 272.820 221.028,273.720 220.674,274.600 220.391 C 275.480 220.109,276.605 219.615,277.100 219.293 C 277.595 218.971,278.000 218.826,278.000 218.970 C 278.000 219.266,278.303 219.042,280.700 216.974 C 284.322 213.849,282.304 212.366,278.569 215.408 C 277.348 216.402,276.181 217.112,275.975 216.984 C 275.769 216.857,275.600 216.900,275.600 217.080 C 275.600 217.717,270.462 219.277,269.245 219.010 C 268.572 218.862,267.965 218.933,267.814 219.177 C 267.473 219.730,265.723 219.723,265.380 219.168 C 265.233 218.930,264.690 218.841,264.173 218.971 C 263.179 219.221,260.000 218.153,260.000 217.569 C 260.000 217.380,259.767 217.314,259.483 217.424 C 258.111 217.950,253.362 211.656,253.504 209.500 C 253.530 209.115,253.381 208.800,253.175 208.800 C 252.686 208.800,252.685 203.718,253.175 203.416 C 253.381 203.288,253.525 202.858,253.495 202.460 C 253.321 200.154,256.669 195.676,260.047 193.697 C 261.945 192.585,270.400 191.822,270.400 192.763 C 270.400 192.990,270.653 193.078,270.961 192.960 C 272.240 192.469,277.851 196.370,277.433 197.459 C 277.319 197.757,277.420 198.000,277.659 198.000 C 277.898 198.000,277.999 198.360,277.884 198.800 C 277.769 199.240,277.838 199.600,278.037 199.600 C 278.237 199.600,278.400 199.935,278.400 200.345 C 278.400 201.125,280.152 201.125,280.635 200.343 C 281.284 199.293,280.990 191.661,280.284 191.220 C 279.378 190.655,278.904 190.950,278.287 192.463 L 277.797 193.664 276.857 192.850 C 276.341 192.402,275.306 191.833,274.559 191.586 C 273.812 191.340,273.200 190.983,273.200 190.794 C 273.200 190.605,272.885 190.436,272.500 190.419 C 270.374 190.326,268.000 189.873,268.000 189.560 C 268.000 189.362,267.460 189.200,266.800 189.200 C 266.140 189.200,265.600 189.380,265.600 189.600 M123.200 190.661 C 121.052 191.368,120.808 191.658,121.523 192.652 L 122.200 193.594 131.400 193.568 L 140.600 193.543 140.702 208.871 C 140.794 222.688,140.735 224.378,140.102 226.004 C 138.423 230.319,136.366 231.665,131.966 231.326 C 129.708 231.151,128.800 231.213,128.800 231.541 C 128.800 231.800,128.181 232.000,127.376 232.000 C 126.529 232.000,126.053 231.838,126.200 231.600 C 126.351 231.356,125.739 231.200,124.628 231.200 C 122.000 231.200,120.395 232.773,121.652 234.117 C 122.143 234.642,132.798 234.705,134.100 234.191 C 134.485 234.039,135.058 234.014,135.374 234.135 C 135.690 234.256,136.005 234.218,136.074 234.050 C 136.143 233.882,136.934 233.307,137.832 232.772 C 142.501 229.989,142.895 228.651,143.065 215.000 C 143.142 208.840,143.248 200.785,143.302 197.100 L 143.400 190.400 133.600 190.431 C 128.210 190.449,123.530 190.552,123.200 190.661 M207.300 190.888 C 206.805 191.127,206.400 191.633,206.400 192.012 C 206.400 192.871,207.418 193.760,207.994 193.403 C 208.559 193.055,216.563 200.679,217.124 202.100 C 217.363 202.705,217.668 203.200,217.803 203.200 C 217.937 203.200,217.916 202.987,217.755 202.727 C 217.595 202.468,218.124 202.759,218.932 203.375 C 219.739 203.991,220.400 204.721,220.400 204.997 C 220.400 205.713,214.446 211.276,213.984 210.990 C 213.773 210.860,213.600 211.050,213.600 211.414 C 213.600 212.242,207.657 217.823,206.869 217.735 C 206.550 217.700,205.843 218.084,205.298 218.589 L 204.308 219.508 205.154 220.354 C 206.227 221.427,215.998 221.659,217.021 220.636 C 217.332 220.325,217.814 219.976,218.093 219.859 C 218.465 219.703,218.419 219.531,217.920 219.214 C 217.546 218.977,216.973 218.516,216.648 218.191 C 216.282 217.825,215.285 217.600,214.029 217.600 C 211.283 217.600,211.280 217.605,217.277 211.847 L 222.554 206.779 224.577 208.760 C 225.690 209.850,227.236 211.339,228.014 212.070 C 228.791 212.802,229.941 214.165,230.568 215.100 C 231.195 216.035,231.920 216.800,232.178 216.800 C 232.436 216.800,232.973 217.038,233.370 217.329 C 233.992 217.784,233.759 217.834,231.703 217.685 C 228.408 217.447,226.544 219.001,228.171 220.629 C 229.159 221.616,238.861 221.437,239.787 220.415 C 240.583 219.535,240.359 218.400,239.389 218.400 C 239.026 218.400,238.870 218.210,239.026 217.957 C 239.210 217.660,239.025 217.602,238.467 217.779 C 237.786 217.995,236.759 217.179,232.857 213.322 C 230.230 210.725,227.257 207.880,226.251 207.000 C 224.327 205.317,224.027 204.800,224.973 204.800 C 225.288 204.800,225.648 204.485,225.774 204.100 C 226.106 203.075,236.421 193.380,237.037 193.513 C 237.541 193.622,239.200 192.459,239.200 191.997 C 239.200 190.320,230.123 189.688,227.978 191.216 C 226.279 192.425,227.478 193.606,230.104 193.310 C 231.120 193.195,232.005 193.285,232.148 193.516 C 232.436 193.982,228.481 197.697,228.008 197.405 C 227.838 197.300,227.187 197.976,226.560 198.907 C 225.292 200.793,223.019 203.200,222.507 203.200 C 222.022 203.200,217.600 198.653,217.600 198.154 C 217.600 197.579,214.588 194.914,213.574 194.592 C 212.149 194.139,212.985 193.400,214.926 193.397 C 217.533 193.392,218.650 192.309,217.200 191.190 C 216.051 190.303,208.962 190.087,207.300 190.888 M184.000 192.785 C 184.000 192.972,184.360 193.031,184.800 192.916 C 185.240 192.801,185.600 192.888,185.600 193.110 C 185.600 193.332,186.061 193.629,186.624 193.770 C 188.434 194.224,192.577 198.606,192.374 199.851 C 192.351 199.994,192.568 200.257,192.857 200.435 C 193.150 200.617,193.382 201.474,193.382 202.380 C 193.382 203.271,193.521 204.000,193.691 204.000 C 193.861 204.000,194.000 204.810,194.000 205.800 C 194.000 206.790,193.825 207.600,193.610 207.600 C 193.390 207.600,193.325 208.123,193.460 208.800 C 193.619 209.593,193.539 210.000,193.226 210.000 C 192.966 210.000,192.859 210.171,192.988 210.380 C 193.690 211.517,189.422 216.662,186.600 218.079 C 180.016 221.386,168.998 216.274,168.669 209.760 C 168.631 209.014,168.442 208.403,168.249 208.402 C 167.715 208.399,168.194 201.869,168.741 201.686 C 168.996 201.601,169.105 201.370,168.982 201.171 C 168.019 199.614,175.616 192.260,177.458 192.967 C 177.756 193.081,178.000 193.011,178.000 192.810 C 178.000 192.609,179.350 192.444,181.000 192.444 C 182.650 192.444,184.000 192.598,184.000 192.785 M51.815 201.176 C 51.631 201.473,65.203 215.324,88.562 238.682 C 108.933 259.051,125.605 275.916,125.612 276.159 C 125.619 276.401,125.821 276.262,126.061 275.849 C 126.584 274.949,52.358 200.297,51.815 201.176 " stroke="none" fill="#050505" fill-rule="evenodd"></path><path id="path3" d="M111.500 111.500 C 62.495 160.506,22.400 200.781,22.400 201.001 C 22.400 201.787,200.686 379.705,201.250 379.481 C 201.686 379.308,201.676 379.257,201.200 379.232 C 200.531 379.196,22.800 201.632,22.800 200.999 C 22.800 200.484,200.404 22.955,201.200 22.675 C 201.733 22.487,201.733 22.460,201.200 22.432 C 200.869 22.414,160.504 62.495,111.500 111.500 M302.400 140.200 C 335.729 173.530,363.089 200.800,363.199 200.800 C 363.309 200.800,336.129 173.530,302.800 140.200 C 269.471 106.870,242.111 79.600,242.001 79.600 C 241.891 79.600,269.071 106.870,302.400 140.200 M118.991 119.585 C 119.206 119.933,106.501 132.898,78.833 160.567 L 38.362 201.040 99.241 261.920 C 132.724 295.404,160.317 322.800,160.559 322.800 C 160.801 322.800,133.558 295.358,100.019 261.819 L 39.039 200.838 79.319 160.561 C 101.474 138.408,119.600 120.140,119.600 119.965 C 119.600 119.790,119.392 119.519,119.138 119.362 C 118.837 119.176,118.786 119.253,118.991 119.585 M275.060 126.187 C 274.936 126.510,274.992 126.871,275.183 126.990 C 275.375 127.108,275.618 126.979,275.723 126.702 C 275.911 126.208,350.000 199.860,350.000 200.542 C 350.000 200.731,349.685 200.767,349.300 200.621 C 348.649 200.375,348.646 200.403,349.262 201.026 C 349.957 201.729,350.800 201.515,350.800 200.635 C 350.800 199.972,276.443 125.600,275.781 125.600 C 275.508 125.600,275.184 125.864,275.060 126.187 M163.100 177.093 C 164.035 177.177,165.565 177.177,166.500 177.093 C 167.435 177.009,166.670 176.940,164.800 176.940 C 162.930 176.940,162.165 177.009,163.100 177.093 M160.800 180.000 C 160.800 180.220,161.610 180.400,162.600 180.400 C 163.590 180.400,164.400 180.220,164.400 180.000 C 164.400 179.780,163.590 179.600,162.600 179.600 C 161.610 179.600,160.800 179.780,160.800 180.000 M164.800 199.000 C 164.800 211.400,164.939 218.000,165.200 218.000 C 165.461 218.000,165.600 211.400,165.600 199.000 C 165.600 186.600,165.461 180.000,165.200 180.000 C 164.939 180.000,164.800 186.600,164.800 199.000 M182.000 189.600 C 182.000 189.820,182.270 190.000,182.600 190.000 C 182.930 190.000,183.200 189.820,183.200 189.600 C 183.200 189.380,182.930 189.200,182.600 189.200 C 182.270 189.200,182.000 189.380,182.000 189.600 M264.400 189.600 C 264.400 189.820,264.670 190.000,265.000 190.000 C 265.330 190.000,265.600 189.820,265.600 189.600 C 265.600 189.380,265.330 189.200,265.000 189.200 C 264.670 189.200,264.400 189.380,264.400 189.600 M268.000 189.600 C 268.000 189.820,268.371 190.000,268.824 190.000 C 269.277 190.000,269.536 189.820,269.400 189.600 C 269.264 189.380,268.893 189.200,268.576 189.200 C 268.259 189.200,268.000 189.380,268.000 189.600 M185.046 189.925 C 184.793 190.336,187.481 191.452,187.845 191.088 C 187.951 190.982,187.536 190.770,186.923 190.616 C 186.310 190.462,185.694 190.152,185.554 189.926 C 185.380 189.645,185.220 189.645,185.046 189.925 M121.500 190.676 C 121.115 190.776,120.800 191.025,120.800 191.229 C 120.800 191.702,121.328 191.707,121.820 191.239 C 122.029 191.040,122.560 190.791,123.000 190.685 L 123.800 190.493 123.000 190.493 C 122.560 190.493,121.885 190.575,121.500 190.676 M216.400 190.563 C 216.400 190.643,216.850 191.003,217.400 191.363 C 217.950 191.724,218.400 191.863,218.400 191.673 C 218.400 191.484,217.950 191.123,217.400 190.873 C 216.850 190.622,216.400 190.483,216.400 190.563 M227.362 191.262 L 226.600 192.124 227.700 191.416 C 228.834 190.686,229.049 190.400,228.462 190.400 C 228.276 190.400,227.781 190.788,227.362 191.262 M237.824 190.987 C 238.251 191.310,238.780 191.575,239.000 191.575 C 239.220 191.575,239.051 191.310,238.624 190.987 C 238.196 190.664,237.667 190.400,237.447 190.400 C 237.227 190.400,237.396 190.664,237.824 190.987 M278.424 191.179 C 277.931 191.607,277.644 192.147,277.787 192.379 C 277.930 192.610,277.867 192.800,277.647 192.800 C 277.427 192.800,277.136 192.620,277.000 192.400 C 276.864 192.180,276.556 192.000,276.315 192.000 C 276.075 192.000,276.309 192.374,276.837 192.832 L 277.797 193.664 278.287 192.463 C 278.879 191.012,279.516 190.556,280.115 191.155 C 280.360 191.400,280.749 191.594,280.980 191.587 C 281.420 191.574,280.041 190.400,279.585 190.400 C 279.440 190.400,278.918 190.750,278.424 191.179 M172.000 192.281 C 171.670 192.583,170.815 193.289,170.100 193.850 C 169.385 194.412,168.800 195.115,168.800 195.413 C 168.800 195.711,169.729 195.064,170.865 193.975 C 172.651 192.262,173.646 190.778,172.000 192.281 M143.295 207.044 C 143.243 215.428,143.111 223.168,143.002 224.244 C 142.825 225.988,142.847 226.062,143.206 224.926 C 143.457 224.134,143.568 217.632,143.500 207.726 L 143.391 191.800 143.295 207.044 M280.942 195.400 C 280.941 197.380,281.008 198.240,281.092 197.312 C 281.176 196.384,281.177 194.764,281.095 193.712 C 281.012 192.660,280.943 193.420,280.942 195.400 M238.400 192.800 C 238.083 192.996,237.956 193.289,238.118 193.452 C 238.281 193.614,238.623 193.537,238.880 193.280 C 239.484 192.676,239.147 192.338,238.400 192.800 M140.400 209.120 L 140.600 225.000 140.705 209.425 C 140.762 200.858,140.672 193.712,140.505 193.544 C 140.337 193.377,140.290 200.386,140.400 209.120 M213.905 193.483 C 214.402 193.579,215.122 193.575,215.505 193.475 C 215.887 193.375,215.480 193.296,214.600 193.301 C 213.720 193.305,213.407 193.387,213.905 193.483 M229.905 193.483 C 230.402 193.579,231.122 193.575,231.505 193.475 C 231.887 193.375,231.480 193.296,230.600 193.301 C 229.720 193.305,229.407 193.387,229.905 193.483 M234.386 195.487 C 233.184 196.745,232.605 197.437,233.100 197.025 C 233.595 196.613,234.000 196.413,234.000 196.580 C 234.000 197.008,236.260 194.542,236.542 193.806 C 236.889 192.903,236.762 193.001,234.386 195.487 M208.800 193.900 C 208.800 194.065,209.475 194.724,210.300 195.364 L 211.800 196.528 210.422 195.064 C 208.983 193.536,208.800 193.405,208.800 193.900 M274.000 194.361 C 274.000 194.613,274.426 194.982,274.947 195.180 C 275.469 195.378,276.279 196.028,276.747 196.624 C 277.216 197.220,277.600 197.537,277.600 197.329 C 277.600 196.966,276.188 195.556,274.700 194.431 C 274.214 194.064,274.000 194.042,274.000 194.361 M172.962 195.258 C 172.204 196.112,172.205 196.114,173.100 195.644 C 173.595 195.384,174.000 194.998,174.000 194.786 C 174.000 194.218,173.809 194.305,172.962 195.258 M188.000 194.786 C 188.000 194.998,188.405 195.384,188.900 195.644 C 189.795 196.114,189.796 196.112,189.038 195.258 C 188.191 194.305,188.000 194.218,188.000 194.786 M230.400 194.924 C 230.070 195.199,229.350 195.945,228.800 196.583 L 227.800 197.742 229.000 196.914 C 230.424 195.932,231.875 194.395,231.362 194.413 C 231.163 194.420,230.730 194.650,230.400 194.924 M253.800 195.506 C 253.094 196.025,252.290 197.200,252.651 197.187 C 252.843 197.181,253.323 196.731,253.719 196.187 C 254.464 195.164,254.483 195.005,253.800 195.506 M257.100 195.757 C 256.328 196.343,256.190 196.800,256.786 196.800 C 256.998 196.800,257.365 196.440,257.600 196.000 C 258.099 195.068,258.043 195.041,257.100 195.757 M190.400 197.200 C 190.635 197.640,191.030 198.000,191.276 198.000 C 191.522 198.000,191.398 197.640,191.000 197.200 C 190.602 196.760,190.208 196.400,190.124 196.400 C 190.040 196.400,190.165 196.760,190.400 197.200 M194.874 199.002 C 195.125 199.553,195.384 199.950,195.449 199.884 C 195.692 199.641,195.094 198.000,194.762 198.000 C 194.572 198.000,194.623 198.451,194.874 199.002 M169.182 200.034 C 168.936 200.493,168.840 200.973,168.968 201.101 C 169.095 201.229,169.200 201.136,169.200 200.895 C 169.200 200.654,169.483 200.174,169.829 199.829 C 170.174 199.483,170.271 199.200,170.043 199.200 C 169.815 199.200,169.427 199.575,169.182 200.034 M280.580 200.361 C 280.371 200.560,279.840 200.809,279.400 200.915 C 278.641 201.097,278.644 201.110,279.451 201.154 C 279.919 201.179,280.526 200.930,280.800 200.600 C 281.343 199.946,281.191 199.781,280.580 200.361 M89.000 237.600 C 109.459 258.060,126.288 274.800,126.398 274.800 C 126.508 274.800,109.859 258.060,89.400 237.600 C 68.941 217.140,52.112 200.400,52.002 200.400 C 51.892 200.400,68.541 217.140,89.000 237.600 M250.656 201.684 C 250.521 202.188,250.431 203.230,250.455 204.000 C 250.489 205.069,250.575 204.880,250.818 203.202 C 251.153 200.892,251.072 200.133,250.656 201.684 M332.999 231.300 L 303.000 261.400 333.100 231.401 C 349.655 214.902,363.200 201.357,363.200 201.301 C 363.200 201.021,360.886 203.319,332.999 231.300 M221.362 202.300 C 222.170 203.254,222.993 203.458,223.397 202.805 C 223.539 202.576,223.374 202.512,223.006 202.653 C 222.655 202.788,221.974 202.562,221.485 202.149 L 220.600 201.400 221.362 202.300 M218.413 203.532 C 218.929 204.230,219.587 204.800,219.875 204.800 C 220.667 204.800,220.533 204.596,218.938 203.380 L 217.476 202.265 218.413 203.532 M168.000 204.024 C 168.000 204.477,168.180 204.736,168.400 204.600 C 168.620 204.464,168.800 204.093,168.800 203.776 C 168.800 203.459,168.620 203.200,168.400 203.200 C 168.180 203.200,168.000 203.571,168.000 204.024 M253.067 203.467 C 252.698 203.835,252.729 208.800,253.100 208.799 C 253.265 208.798,253.400 207.538,253.400 205.999 C 253.400 204.459,253.385 203.200,253.367 203.200 C 253.348 203.200,253.213 203.320,253.067 203.467 M193.200 204.600 C 193.200 204.930,193.380 205.200,193.600 205.200 C 193.820 205.200,194.000 204.930,194.000 204.600 C 194.000 204.270,193.820 204.000,193.600 204.000 C 193.380 204.000,193.200 204.270,193.200 204.600 M224.411 205.100 C 224.417 205.265,225.261 206.120,226.286 207.000 C 227.311 207.880,228.949 209.410,229.926 210.400 L 231.702 212.200 229.881 209.992 C 227.150 206.680,224.378 204.202,224.411 205.100 M193.200 207.000 C 193.200 207.330,193.380 207.600,193.600 207.600 C 193.820 207.600,194.000 207.330,194.000 207.000 C 194.000 206.670,193.820 206.400,193.600 206.400 C 193.380 206.400,193.200 206.670,193.200 207.000 M218.017 207.121 C 216.874 207.910,215.729 209.002,214.600 210.377 L 213.800 211.351 215.000 210.509 C 216.157 209.697,219.552 206.378,219.181 206.421 C 219.082 206.433,218.558 206.748,218.017 207.121 M221.300 207.945 C 219.670 209.341,219.617 209.872,221.200 208.936 C 221.860 208.546,222.400 208.067,222.400 207.871 C 222.400 207.675,222.695 207.628,223.057 207.766 C 223.606 207.977,223.630 207.918,223.208 207.409 C 222.930 207.074,222.679 206.807,222.651 206.816 C 222.623 206.825,222.015 207.333,221.300 207.945 M250.501 208.200 C 250.505 209.080,250.587 209.393,250.683 208.895 C 250.779 208.398,250.775 207.678,250.675 207.295 C 250.575 206.913,250.496 207.320,250.501 208.200 M168.000 207.800 C 168.000 208.130,168.180 208.400,168.400 208.400 C 168.620 208.400,168.800 208.130,168.800 207.800 C 168.800 207.470,168.620 207.200,168.400 207.200 C 168.180 207.200,168.000 207.470,168.000 207.800 M192.800 210.705 C 192.800 210.946,192.517 211.426,192.171 211.771 C 191.826 212.117,191.729 212.400,191.957 212.400 C 192.464 212.400,193.356 210.823,193.032 210.499 C 192.905 210.371,192.800 210.464,192.800 210.705 M214.786 214.300 L 212.600 216.600 214.900 214.414 C 217.037 212.382,217.383 212.000,217.086 212.000 C 217.024 212.000,215.989 213.035,214.786 214.300 M254.737 213.078 C 255.214 213.975,255.937 214.596,256.199 214.334 C 256.279 214.254,255.878 213.741,255.308 213.194 C 254.350 212.277,254.306 212.268,254.737 213.078 M279.553 213.500 C 279.527 213.665,279.527 213.935,279.553 214.100 C 279.579 214.265,279.439 214.400,279.243 214.400 C 279.046 214.400,278.769 214.705,278.626 215.078 C 278.382 215.713,278.412 215.713,279.116 215.076 C 279.529 214.702,279.867 214.127,279.867 213.798 C 279.867 213.183,279.637 212.965,279.553 213.500 M252.938 215.797 C 253.372 216.733,254.015 217.164,253.987 216.500 C 253.971 216.108,252.975 214.800,252.694 214.800 C 252.573 214.800,252.683 215.249,252.938 215.797 M169.400 216.800 C 170.259 217.680,171.052 218.400,171.162 218.400 C 171.272 218.400,170.659 217.680,169.800 216.800 C 168.941 215.920,168.148 215.200,168.038 215.200 C 167.928 215.200,168.541 215.920,169.400 216.800 M257.600 215.875 C 257.600 216.320,259.135 217.824,259.324 217.564 C 259.390 217.474,259.029 216.966,258.522 216.437 C 258.015 215.907,257.600 215.654,257.600 215.875 M280.970 216.833 C 280.217 217.665,280.218 217.666,281.308 217.169 C 281.908 216.896,282.400 216.520,282.400 216.336 C 282.400 215.747,281.748 215.974,280.970 216.833 M204.900 218.198 C 204.157 219.042,204.294 219.273,205.200 218.707 C 205.640 218.432,206.000 218.071,206.000 217.904 C 206.000 217.427,205.449 217.575,204.900 218.198 M239.000 218.000 C 238.864 218.220,238.929 218.400,239.144 218.400 C 239.359 218.400,239.864 218.524,240.267 218.675 C 240.912 218.917,240.934 218.869,240.451 218.275 C 239.827 217.508,239.359 217.419,239.000 218.000 M255.600 218.553 C 255.600 218.858,255.977 219.205,256.437 219.326 C 257.240 219.536,257.245 219.513,256.575 218.772 C 255.743 217.854,255.600 217.821,255.600 218.553 M177.000 218.800 C 177.440 218.989,178.160 219.138,178.600 219.132 C 179.243 219.123,179.204 219.057,178.400 218.800 C 177.032 218.362,175.981 218.362,177.000 218.800 M270.400 218.800 C 269.605 219.314,270.604 219.314,271.800 218.800 L 272.600 218.456 271.800 218.434 C 271.360 218.422,270.730 218.587,270.400 218.800 M189.000 219.600 C 188.589 220.054,188.476 220.400,188.738 220.400 C 188.992 220.400,189.200 220.220,189.200 220.000 C 189.200 219.780,189.470 219.600,189.800 219.600 C 190.130 219.600,190.400 219.420,190.400 219.200 C 190.400 218.559,189.782 218.736,189.000 219.600 M265.400 219.200 C 265.536 219.420,266.076 219.600,266.600 219.600 C 267.124 219.600,267.664 219.420,267.800 219.200 C 267.947 218.961,267.463 218.800,266.600 218.800 C 265.737 218.800,265.253 218.961,265.400 219.200 M140.801 230.198 C 140.286 230.748,139.949 231.282,140.053 231.386 C 140.157 231.491,140.712 231.042,141.285 230.388 C 142.545 228.952,142.127 228.788,140.801 230.198 M135.653 230.653 C 134.913 230.976,134.401 231.334,134.516 231.450 C 134.737 231.671,137.200 230.515,137.200 230.190 C 137.200 229.963,137.313 229.929,135.653 230.653 M126.200 231.600 C 126.053 231.838,126.529 232.000,127.376 232.000 C 128.159 232.000,128.800 231.820,128.800 231.600 C 128.800 231.380,128.271 231.200,127.624 231.200 C 126.977 231.200,126.336 231.380,126.200 231.600 " stroke="none" fill="#494949" fill-rule="evenodd"></path><path id="path4" d="M140.000 179.400 C 140.000 181.667,140.161 183.200,140.400 183.200 C 140.639 183.200,140.800 181.667,140.800 179.400 C 140.800 177.133,140.639 175.600,140.400 175.600 C 140.161 175.600,140.000 177.133,140.000 179.400 M232.657 197.364 C 232.028 197.878,231.684 198.405,231.893 198.534 C 232.102 198.663,232.667 198.236,233.148 197.584 C 234.195 196.169,234.145 196.147,232.657 197.364 M375.412 199.980 C 375.283 200.189,375.556 200.563,376.019 200.810 C 376.791 201.223,376.824 201.192,376.416 200.430 C 375.920 199.503,375.754 199.428,375.412 199.980 M193.200 205.800 C 193.200 206.130,193.380 206.400,193.600 206.400 C 193.820 206.400,194.000 206.130,194.000 205.800 C 194.000 205.470,193.820 205.200,193.600 205.200 C 193.380 205.200,193.200 205.470,193.200 205.800 M249.600 206.000 C 249.600 206.440,249.780 206.800,250.000 206.800 C 250.220 206.800,250.400 206.440,250.400 206.000 C 250.400 205.560,250.220 205.200,250.000 205.200 C 249.780 205.200,249.600 205.560,249.600 206.000 M220.095 209.466 C 219.818 209.578,219.388 210.059,219.141 210.535 C 218.720 211.345,218.759 211.338,219.746 210.430 C 220.326 209.897,220.800 209.402,220.800 209.330 C 220.800 209.184,220.793 209.185,220.095 209.466 " stroke="none" fill="#747474" fill-rule="evenodd"></path></g></svg>